<svg xmlns="http://www.w3.org/2000/svg" width="1200" height="900" viewBox="0 0 1200 900" role="img" aria-labelledby="title desc">
  <title id="title">Galería regalos</title>
  <desc id="desc">Placeholder visual</desc>
  <defs>
    <linearGradient id="bg" x1="0" x2="1" y1="0" y2="1">
      <stop offset="0%" stop-color="#fff7fb"/>
      <stop offset="54%" stop-color="#ffe7f1"/>
      <stop offset="100%" stop-color="#fff4dc"/>
    </linearGradient>
    <filter id="shadow" x="-20%" y="-20%" width="140%" height="140%">
      <feDropShadow dx="0" dy="18" stdDeviation="22" flood-color="#8f3d61" flood-opacity="0.16"/>
    </filter>
  </defs>
  <rect width="1200" height="900" fill="url(#bg)"/>
  <circle cx="104" cy="116" r="70" fill="#ffd6e7" opacity="0.82"/>
  <circle cx="1055" cy="124" r="96" fill="#fff0b8" opacity="0.82"/>
  <circle cx="1084" cy="746" r="142" fill="#ffd6e7" opacity="0.52"/>
  <path d="M126 706 C234 618, 338 840, 478 725 C612 616, 704 798, 822 690 C928 594, 997 633, 1094 542" fill="none" stroke="#f8bfd6" stroke-width="22" stroke-linecap="round" opacity="0.45"/>
  <g filter="url(#shadow)">
    <rect x="258" y="186" width="684" height="520" rx="56" fill="#ffffff" opacity="0.94"/>
    <rect x="302" y="230" width="596" height="432" rx="42" fill="#f3a6c8" opacity="0.12"/>
    <circle cx="600" cy="352" r="116" fill="#ffffff"/>
    <path d="M494 387 C532 312, 668 312, 706 387 C731 438, 691 500, 600 500 C509 500, 469 438, 494 387Z" fill="#f3a6c8" opacity="0.82"/>
    <path d="M532 338 C558 294, 642 294, 668 338" fill="none" stroke="#8f3d61" stroke-width="18" stroke-linecap="round" opacity="0.42"/>
    <circle cx="556" cy="397" r="12" fill="#fff4dc"/>
    <circle cx="620" cy="372" r="10" fill="#fff4dc"/>
    <circle cx="650" cy="424" r="11" fill="#fff4dc"/>
    <text x="600" y="584" text-anchor="middle" font-family="Arial, Helvetica, sans-serif" font-size="48" font-weight="700" fill="#5b263d">Galería regalos</text>
    <text x="600" y="636" text-anchor="middle" font-family="Arial, Helvetica, sans-serif" font-size="26" fill="#7b4b5f">Placeholder visual</text>
  </g>
</svg>
